<svg xmlns="http://www.w3.org/2000/svg" width="1600" height="900" viewBox="0 0 1600 900">
  <defs>
    <style>
      .bg{fill:#fff}
      .line{stroke:#111;stroke-width:3;fill:none}
      .thin{stroke:#444;stroke-width:2;fill:none}
      .box{fill:#fff;stroke:#111;stroke-width:3;rx:18}
      .soft{fill:#f5f5f5;stroke:#111;stroke-width:2;rx:14}
      .dark{fill:#111}
      .title{font:700 52px "Microsoft YaHei",Arial,sans-serif;fill:#111}
      .h{font:700 30px "Microsoft YaHei",Arial,sans-serif;fill:#111}
      .t{font:400 24px "Microsoft YaHei",Arial,sans-serif;fill:#111}
      .s{font:400 20px "Microsoft YaHei",Arial,sans-serif;fill:#333}
      .w{font:700 24px "Microsoft YaHei",Arial,sans-serif;fill:#fff}
      .arrow{stroke:#111;stroke-width:4;fill:none;marker-end:url(#arrow)}
    </style>
    <marker id="arrow" markerWidth="12" markerHeight="12" refX="10" refY="6" orient="auto">
      <path d="M0,0 L12,6 L0,12 Z" fill="#111"/>
    </marker>
  </defs>
  <rect class="bg" width="1600" height="900"/>
  <text class="title" x="70" y="95">P6 智能体角色分工</text>
  <line class="line" x1="70" y1="135" x2="1530" y2="135"/>
  
  <circle cx="800" cy="405" r="115" fill="#111"/>
  <text class="w" x="720" y="395">任务理解</text><text class="w" x="720" y="435">智能体</text>
  <rect class="box" x="180" y="230" width="330" height="105"/><text class="h" x="208" y="278">证据质检</text><text class="s" x="208" y="312">材料清单 / 证据缺口</text>
  <rect class="box" x="1090" y="230" width="330" height="105"/><text class="h" x="1118" y="278">法规研究</text><text class="s" x="1118" y="312">法规检索 / 引用溯源</text>
  <rect class="box" x="180" y="510" width="330" height="105"/><text class="h" x="208" y="558">文书生成</text><text class="s" x="208" y="592">报告 / 律师函 / 结论</text>
  <rect class="box" x="1090" y="510" width="330" height="105"/><text class="h" x="1118" y="558">交叉审查</text><text class="s" x="1118" y="592">一致性 / 风险标记</text>
  <rect class="soft" x="635" y="650" width="330" height="105"/><text class="h" x="663" y="698">合规监测</text><text class="s" x="663" y="732">审计链 / 导出门禁</text>
  <line class="thin" x1="510" y1="282" x2="700" y2="360"/><line class="thin" x1="1090" y1="282" x2="900" y2="360"/>
  <line class="thin" x1="510" y1="560" x2="700" y2="455"/><line class="thin" x1="1090" y1="560" x2="900" y2="455"/>
  <line class="thin" x1="800" y1="520" x2="800" y2="650"/>

</svg>
