<svg xmlns="http://www.w3.org/2000/svg" width="1600" height="900" viewBox="0 0 1600 900">
  <defs>
    <style>
      .bg{fill:#fff}.line{stroke:#111;stroke-width:3;fill:none}.box{fill:#fff;stroke:#111;stroke-width:3;rx:18}.soft{fill:#f5f5f5;stroke:#111;stroke-width:2;rx:14}.strong{fill:#fff;stroke:#111;stroke-width:5;rx:18}
      .title{font:700 52px "Microsoft YaHei",Arial,sans-serif;fill:#111}.h{font:700 30px "Microsoft YaHei",Arial,sans-serif;fill:#111}.t{font:400 24px "Microsoft YaHei",Arial,sans-serif;fill:#111}.s{font:400 20px "Microsoft YaHei",Arial,sans-serif;fill:#333}
    </style>
  </defs>
  <rect class="bg" width="1600" height="900"/>
  <text class="title" x="70" y="95">12 会员方案</text>
  <line class="line" x1="70" y1="135" x2="1530" y2="135"/>
  <rect class="soft" x="120" y="185" width="1360" height="70"/>
  <text class="h" x="310" y="230">个人三档会员：体验使用 → 标准办案 → 高频深度能力</text>
  <rect class="box" x="120" y="315" width="400" height="300"/>
  <text class="h" x="235" y="375">体验版 Trial</text>
  <text class="s" x="235" y="420">低门槛体验</text>
  <text class="t" x="175" y="480">基础任务体验</text>
  <text class="t" x="175" y="535">DAG 执行预览</text>
  <text class="t" x="175" y="590">回放记录查看</text>
  <rect class="strong" x="600" y="285" width="400" height="350"/>
  <text class="h" x="720" y="350">专业版 Pro</text>
  <text class="s" x="720" y="395">标准办案闭环</text>
  <text class="t" x="655" y="460">法律智能体协同</text>
  <text class="t" x="655" y="515">DAG + 法规检索</text>
  <text class="t" x="655" y="570">DOCX/PDF 导出</text>
  <text class="t" x="655" y="625">回放与归档</text>
  <rect class="box" x="1080" y="315" width="400" height="300"/>
  <text class="h" x="1180" y="375">旗舰版 Ultra</text>
  <text class="s" x="1180" y="420">高频与深度能力</text>
  <text class="t" x="1135" y="480">更高任务额度</text>
  <text class="t" x="1135" y="535">高级工具包</text>
  <text class="t" x="1135" y="590">优先调度 / 协作席位</text>
  <rect class="soft" x="170" y="720" width="1260" height="86"/>
  <text class="h" x="250" y="772">机构定制：私有化部署 / 专属知识库 / 行业工作流 / 工具 API 对接</text>
</svg>
