<svg xmlns="http://www.w3.org/2000/svg" width="1600" height="900" viewBox="0 0 1600 900">
  <defs><style>
    .bg{fill:#f6f8fa}.navy{fill:#123a63}.teal{fill:#1c8ca8}.gold{fill:#d99a2b}.white{fill:#fff}
    .title{font:700 54px "Microsoft YaHei",Arial,sans-serif;fill:#123a63}.h{font:700 28px "Microsoft YaHei",Arial,sans-serif;fill:#123a63}.t{font:400 23px "Microsoft YaHei",Arial,sans-serif;fill:#26384d}.wh{font:700 24px "Microsoft YaHei",Arial,sans-serif;fill:#fff}
    .card{fill:#fff;stroke:#d7e0ea;stroke-width:2;rx:14}.pill{fill:#eef6f8;stroke:#1c8ca8;stroke-width:2;rx:20}.pillG{fill:#fff8e8;stroke:#d99a2b;stroke-width:2;rx:20}
  </style></defs>
  <rect class="bg" width="1600" height="900"/><rect class="navy" x="54" y="40" width="86" height="86" rx="10"/><text class="white" x="70" y="99" font-size="52" font-weight="700">11</text><text class="title" x="165" y="95">后台组件局部示例</text><line x1="55" y1="150" x2="1540" y2="150" stroke="#123a63" stroke-width="4"/>
  <text class="h" x="95" y="235">用户与会员管理</text>
  <rect class="card" x="95" y="270" width="1410" height="80"/><text class="t" x="130" y="320">姓名</text><text class="t" x="360" y="320">账号</text><text class="t" x="600" y="320">机构</text><text class="t" x="900" y="320">会员等级</text><text class="t" x="1220" y="320">状态</text>
  <rect class="card" x="95" y="365" width="1410" height="80"/><text class="t" x="130" y="415">王律师</text><text class="t" x="360" y="415">lawyer01</text><text class="t" x="600" y="415">个人律师</text><rect class="pill" x="895" y="385" width="150" height="40"/><text class="t" x="930" y="413">Pro</text><text class="t" x="1220" y="415">活跃</text>
  <rect class="card" x="95" y="460" width="1410" height="80"/><text class="t" x="130" y="510">企业法务</text><text class="t" x="360" y="510">legal02</text><text class="t" x="600" y="510">科技公司</text><rect class="pillG" x="895" y="480" width="150" height="40"/><text class="t" x="920" y="508">Ultra</text><text class="t" x="1220" y="510">活跃</text>
  <text class="h" x="95" y="650">会员结构</text>
  <rect class="card" x="95" y="690" width="360" height="115"/><text class="h" x="160" y="750">体验版</text><text class="t" x="170" y="785">Trial</text>
  <rect class="card" x="515" y="690" width="360" height="115"/><text class="h" x="595" y="750">专业版</text><text class="t" x="630" y="785">Pro</text>
  <rect class="card" x="935" y="690" width="360" height="115"/><text class="h" x="1015" y="750">旗舰版</text><text class="t" x="1045" y="785">Ultra</text>
</svg>
