<svg xmlns="http://www.w3.org/2000/svg" width="1600" height="900" viewBox="0 0 1600 900">
  <defs><style>
    .bg{fill:#f6f8fa}.navy{fill:#123a63}.teal{fill:#1c8ca8}.gold{fill:#d99a2b}.white{fill:#fff}
    .title{font:700 54px "Microsoft YaHei",Arial,sans-serif;fill:#123a63}.h{font:700 30px "Microsoft YaHei",Arial,sans-serif;fill:#123a63}.t{font:400 24px "Microsoft YaHei",Arial,sans-serif;fill:#26384d}.tag{font:700 20px "Microsoft YaHei",Arial,sans-serif;fill:#123a63}
    .panel{fill:#fff;stroke:#123a63;stroke-width:3;rx:18}.cell{fill:#fff;stroke:#d7e0ea;stroke-width:2}.pill{fill:#eef6f8;stroke:#1c8ca8;stroke-width:2;rx:21}
  </style></defs>
  <rect class="bg" width="1600" height="900"/>
  <rect class="navy" x="54" y="40" width="86" height="86" rx="10"/><text class="white" x="83" y="99" font-size="52" font-weight="700">2</text>
  <text class="title" x="165" y="95">用户场景</text><line x1="55" y1="150" x2="1540" y2="150" stroke="#123a63" stroke-width="4"/>
  <rect class="panel" x="80" y="210" width="360" height="455"/><text class="h" x="190" y="270">目标用户</text>
  <text class="t" x="135" y="350">个人律师</text><text class="t" x="135" y="420">律所团队</text><text class="t" x="135" y="490">企业法务</text><text class="t" x="135" y="560">合规人员</text><text class="t" x="135" y="630">法律学习者</text>
  <rect class="panel" x="500" y="210" width="1015" height="455"/><text class="h" x="880" y="270">场景与交付物</text>
  <g transform="translate(560,320)">
    <rect class="cell" x="0" y="0" width="280" height="58"/><text class="t" x="55" y="38">合同审查</text><rect class="cell" x="280" y="0" width="610" height="58"/><text class="t" x="330" y="38">审查报告 / 风险清单</text>
    <rect class="cell" x="0" y="58" width="280" height="58"/><text class="t" x="55" y="96">争议解决</text><rect class="cell" x="280" y="58" width="610" height="58"/><text class="t" x="330" y="96">事实时间线 / 证据目录</text>
    <rect class="cell" x="0" y="116" width="280" height="58"/><text class="t" x="55" y="154">公司事务</text><rect class="cell" x="280" y="116" width="610" height="58"/><text class="t" x="330" y="154">治理风险 / 决议草案</text>
    <rect class="cell" x="0" y="174" width="280" height="58"/><text class="t" x="55" y="212">合规知产</text><rect class="cell" x="280" y="174" width="610" height="58"/><text class="t" x="330" y="212">风险分级 / 整改建议</text>
    <rect class="cell" x="0" y="232" width="280" height="58"/><text class="t" x="55" y="270">法规研究</text><rect class="cell" x="280" y="232" width="610" height="58"/><text class="t" x="330" y="270">调研摘要 / 文书训练</text>
  </g>
  <g transform="translate(88,735)">
    <rect class="pill" x="0" y="0" width="140" height="42"/><text class="tag" x="30" y="28">通用分析</text>
    <rect class="pill" x="158" y="0" width="140" height="42"/><text class="tag" x="188" y="28">材料解读</text>
    <rect class="pill" x="316" y="0" width="140" height="42"/><text class="tag" x="346" y="28">调研摘要</text>
    <rect class="pill" x="474" y="0" width="140" height="42"/><text class="tag" x="504" y="28">合同审查</text>
    <rect class="pill" x="632" y="0" width="140" height="42"/><text class="tag" x="662" y="28">公司事务</text>
    <rect class="pill" x="790" y="0" width="140" height="42"/><text class="tag" x="820" y="28">争议解决</text>
    <rect class="pill" x="948" y="0" width="140" height="42"/><text class="tag" x="978" y="28">合规知产</text>
    <rect class="pill" x="1106" y="0" width="140" height="42"/><text class="tag" x="1136" y="28">法规研究</text>
    <rect class="pill" x="1264" y="0" width="140" height="42"/><text class="tag" x="1294" y="28">文书起草</text>
  </g>
</svg>
