<svg xmlns="http://www.w3.org/2000/svg" width="1600" height="900" viewBox="0 0 1600 900">
  <defs><style>
    .bg{fill:#f6f8fa}.navy{fill:#123a63}.teal{fill:#1c8ca8}.gold{fill:#d99a2b}.white{fill:#fff}
    .title{font:700 56px "Microsoft YaHei",Arial,sans-serif;fill:#123a63}.h{font:700 29px "Microsoft YaHei",Arial,sans-serif;fill:#123a63}.t{font:400 23px "Microsoft YaHei",Arial,sans-serif;fill:#26384d}.wh{font:700 25px "Microsoft YaHei",Arial,sans-serif;fill:#fff}
    .box{fill:#fff;stroke:#123a63;stroke-width:3;rx:18}.boxT{fill:#fff;stroke:#1c8ca8;stroke-width:3;rx:18}.arrow{stroke:#123a63;stroke-width:6;fill:none;marker-end:url(#a)}
  </style><marker id="a" markerWidth="14" markerHeight="14" refX="12" refY="7" orient="auto"><path d="M0,0 L14,7 L0,14 Z" fill="#123a63"/></marker></defs>
  <rect class="bg" width="1600" height="900"/>
  <rect class="navy" x="54" y="40" width="86" height="86" rx="10"/><text class="white" x="70" y="99" font-size="52" font-weight="700">10</text>
  <text class="title" x="165" y="98">法律知识与工具集成</text><line x1="55" y1="155" x2="1540" y2="155" stroke="#123a63" stroke-width="4"/>
  <g transform="translate(90,230)">
    <rect class="box" x="0" y="0" width="360" height="400"/><text class="h" x="120" y="60">知识来源</text><text class="t" x="55" y="125">国家法律法规数据库</text><text class="t" x="55" y="185">行政法规库</text><text class="t" x="55" y="245">最高人民法院指导性案例</text><text class="t" x="55" y="305">公开裁判文书</text><text class="t" x="55" y="365">本地知识库与模板</text>
    <path class="arrow" d="M385 200 H510"/>
    <rect class="boxT" x="535" y="90" width="300" height="220"/><text class="h" x="620" y="165">法规 RAG</text><text class="t" x="600" y="225">检索 · 摘要 · 引用</text>
    <path class="arrow" d="M860 200 H985"/>
    <rect class="box" x="1010" y="0" width="400" height="400"/><text class="h" x="1125" y="60">工具调用</text><text class="t" x="1070" y="125">legal_rag</text><text class="t" x="1070" y="185">search</text><text class="t" x="1070" y="245">document_parse</text><text class="t" x="1070" y="305">export</text><text class="t" x="1070" y="365">audit_write</text>
  </g>
  <rect class="navy" x="295" y="720" width="1010" height="72" rx="18"/><text class="wh" x="420" y="765">权威来源 + 本地知识库 + 工具调用记录 → 结构化法律成果</text>
</svg>
