<svg xmlns="http://www.w3.org/2000/svg" width="1600" height="900" viewBox="0 0 1600 900">
  <defs>
    <style>
      .bg{fill:#f6f8fa}.navy{fill:#123a63}.teal{fill:#1c8ca8}.gold{fill:#d99a2b}.white{fill:#fff}
      .title{font:700 54px "Microsoft YaHei",Arial,sans-serif;fill:#123a63}.sub{font:400 25px "Microsoft YaHei",Arial,sans-serif;fill:#123a63}
      .center{font:700 40px "Microsoft YaHei",Arial,sans-serif;fill:#fff}.h{font:700 32px "Microsoft YaHei",Arial,sans-serif;fill:#123a63}.t{font:400 24px "Microsoft YaHei",Arial,sans-serif;fill:#26384d}.wh{font:700 27px "Microsoft YaHei",Arial,sans-serif;fill:#fff}
      .card{fill:#fff;stroke:#123a63;stroke-width:3;rx:20}.line{stroke:#1c8ca8;stroke-width:5;fill:none}
    </style>
  </defs>
  <rect class="bg" width="1600" height="900"/>
  <rect class="navy" x="54" y="40" width="86" height="86" rx="10"/><text class="white" x="70" y="99" font-size="52" font-weight="700">13</text>
  <text class="title" x="165" y="86">社会价值</text><text class="sub" x="168" y="122">让法律服务更高效、更透明、更容易被复核</text>
  <line x1="55" y1="150" x2="1540" y2="150" stroke="#123a63" stroke-width="4"/>
  <circle class="navy" cx="800" cy="455" r="150"/>
  <text class="center" x="665" y="430">可编排</text><text class="center" x="745" y="490">可追溯</text><text class="center" x="825" y="550">可交付</text>
  <path class="line" d="M690 350 L500 260"/><path class="line" d="M910 350 L1100 260"/><path class="line" d="M690 560 L500 650"/><path class="line" d="M910 560 L1100 650"/>
  <rect class="card" x="240" y="210" width="360" height="145"/><text class="h" x="358" y="270">降低门槛</text><text class="t" x="292" y="320">基础法律材料整理能力</text>
  <rect class="card" x="1000" y="210" width="360" height="145"/><text class="h" x="1118" y="270">提升效率</text><text class="t" x="1040" y="320">减少重复检索与初稿整理</text>
  <rect class="card" x="240" y="610" width="360" height="145"/><text class="h" x="358" y="670">合规治理</text><text class="t" x="292" y="720">风险识别与审计留痕</text>
  <rect class="card" x="1000" y="610" width="360" height="145"/><text class="h" x="1118" y="670">教育实践</text><text class="t" x="1040" y="720">案例推演与文书训练</text>
  <rect class="gold" x="245" y="805" width="1110" height="58" rx="29"/>
  <text class="wh" x="345" y="843">支撑能力：多场景入口 + 法规检索 + DAG 编排 + Replay 回放 + 管理端配置</text>
</svg>
