<svg xmlns="http://www.w3.org/2000/svg" width="1600" height="900" viewBox="0 0 1600 900">
  <defs>
    <style>
      .bg{fill:#f6f8fa}.navy{fill:#123a63}.teal{fill:#1c8ca8}.gold{fill:#d99a2b}.white{fill:#fff}
      .title{font:700 54px "Microsoft YaHei",Arial,sans-serif;fill:#123a63}.sub{font:400 25px "Microsoft YaHei",Arial,sans-serif;fill:#123a63}
      .h{font:700 30px "Microsoft YaHei",Arial,sans-serif;fill:#123a63}.t{font:400 24px "Microsoft YaHei",Arial,sans-serif;fill:#26384d}.wh{font:700 28px "Microsoft YaHei",Arial,sans-serif;fill:#fff}
      .card{fill:#fff;stroke:#123a63;stroke-width:3;rx:22}.cardT{fill:#fff;stroke:#1c8ca8;stroke-width:4;rx:22}.cardG{fill:#fff;stroke:#d99a2b;stroke-width:4;rx:22}
      .arrow{stroke:#123a63;stroke-width:5;fill:none;marker-end:url(#arrow)}
    </style>
    <marker id="arrow" markerWidth="12" markerHeight="12" refX="10" refY="6" orient="auto"><path d="M0,0 L12,6 L0,12 Z" fill="#123a63"/></marker>
  </defs>
  <rect class="bg" width="1600" height="900"/>
  <rect class="navy" x="54" y="40" width="86" height="86" rx="10"/><text class="white" x="70" y="99" font-size="52" font-weight="700">12</text>
  <text class="title" x="165" y="86">商业方案</text><text class="sub" x="168" y="122">个人会员分层 + 机构定制交付</text>
  <line x1="55" y1="150" x2="1540" y2="150" stroke="#123a63" stroke-width="4"/>
  <g transform="translate(145,205)">
    <rect class="navy" x="0" y="0" width="260" height="58" rx="29"/><text class="wh" x="48" y="38">个人用户增长</text>
    <path class="arrow" d="M270 29 H365"/>
    <rect class="teal" x="380" y="0" width="260" height="58" rx="29"/><text class="wh" x="428" y="38">专业用户留存</text>
    <path class="arrow" d="M650 29 H745"/>
    <rect class="gold" x="760" y="0" width="260" height="58" rx="29"/><text class="wh" x="808" y="38">机构客户定制</text>
    <path class="arrow" d="M1030 29 H1125"/>
    <rect class="navy" x="1140" y="0" width="260" height="58" rx="29"/><text class="wh" x="1188" y="38">行业场景复制</text>
  </g>
  <g transform="translate(100,330)">
    <rect class="card" x="0" y="0" width="420" height="300"/>
    <text class="h" x="110" y="62">体验版 Trial</text>
    <text class="t" x="115" y="115">低门槛体验</text>
    <text class="t" x="70" y="172">基础任务体验</text>
    <text class="t" x="70" y="218">DAG 执行预览</text>
    <text class="t" x="70" y="264">回放记录查看</text>
    <rect class="cardT" x="490" y="0" width="420" height="300"/>
    <text class="h" x="605" y="62">专业版 Pro</text>
    <text class="t" x="610" y="115">标准办案闭环</text>
    <text class="t" x="560" y="172">智能体协同</text>
    <text class="t" x="560" y="218">DAG + 法规检索</text>
    <text class="t" x="560" y="264">文书导出与归档</text>
    <rect class="cardG" x="980" y="0" width="420" height="300"/>
    <text class="h" x="1085" y="62">旗舰版 Ultra</text>
    <text class="t" x="1090" y="115">高频与深度能力</text>
    <text class="t" x="1050" y="172">高级工具包</text>
    <text class="t" x="1050" y="218">优先调度</text>
    <text class="t" x="1050" y="264">协作席位规划</text>
  </g>
  <rect class="navy" x="100" y="700" width="1400" height="92" rx="20"/>
  <text class="wh" x="150" y="756">机构定制：私有化部署 / 专属知识库 / 行业工作流 / 工具 API 对接 / 运维服务</text>
</svg>
