<svg xmlns="http://www.w3.org/2000/svg" width="1200" height="700" viewBox="0 0 1200 700">
  <defs><style>
    .bg{fill:#ffffff}.node{fill:#ffffff;stroke:#b8bec8;stroke-width:2}.cond{fill:#f3f6fa;stroke:#c7d2e5}.must{fill:#f8fafc;stroke:#cbd5e1}.end{fill:#f3f6fa;stroke:#c7d2e5}.title{font:700 34px "Microsoft YaHei",Arial;fill:#1f2937}.h{font:700 18px "Microsoft YaHei",Arial;fill:#1f3a5f}.s{font:500 13px "Microsoft YaHei",Arial;fill:#64748b}.arrow{stroke:#2f5597;stroke-width:3;fill:none;marker-end:url(#arrow)}.dash{stroke-dasharray:8 6}
  </style><marker id="arrow" markerWidth="12" markerHeight="12" refX="10" refY="6" orient="auto"><path d="M2,2 L10,6 L2,10 Z" fill="#2f5597"/></marker></defs>
  <rect class="bg" width="1200" height="700"/>
  <text class="title" x="60" y="65">法律任务 DAG 编排</text>
  <rect class="node" x="80" y="300" width="140" height="78" rx="14"/><text class="h" x="115" y="332">任务理解</text><text class="s" x="108" y="356">intake</text>
  <rect class="cond" x="310" y="190" width="160" height="78" rx="14"/><text class="h" x="350" y="222">证据质检</text><text class="s" x="330" y="246">material &lt; 70%</text>
  <rect class="cond" x="310" y="410" width="160" height="78" rx="14"/><text class="h" x="350" y="442">法规研究</text><text class="s" x="330" y="466">citation &lt; 55%</text>
  <rect class="node" x="565" y="300" width="160" height="78" rx="14"/><text class="h" x="605" y="332">文书生成</text><text class="s" x="604" y="356">wantsOutput</text>
  <rect class="must" x="805" y="300" width="160" height="78" rx="14"/><text class="h" x="845" y="332">交叉审查</text><text class="s" x="835" y="356">mandatory</text>
  <rect class="must" x="805" y="485" width="160" height="78" rx="14"/><text class="h" x="845" y="517">合规监测</text><text class="s" x="840" y="541">export gate</text>
  <rect class="end" x="1030" y="485" width="120" height="78" rx="14"/><text class="h" x="1070" y="517">归档</text><text class="s" x="1058" y="541">archive</text>
  <path class="arrow" d="M220 338 C255 338, 270 230, 305 230"/>
  <path class="arrow" d="M220 342 C255 342, 270 450, 305 450"/>
  <path class="arrow" d="M470 230 C530 230, 535 330, 560 330"/>
  <path class="arrow" d="M470 450 C530 450, 535 348, 560 348"/>
  <path class="arrow" d="M725 339 L800 339"/>
  <path class="arrow" d="M885 378 L885 480"/>
  <path class="arrow" d="M965 524 L1025 524"/>
  <path class="arrow dash" d="M885 300 C885 150, 390 120, 390 185"/>
  <text class="s" x="530" y="128">必要时回溯补充材料/依据</text>
</svg>


